<svg xmlns="http://www.w3.org/2000/svg"> 
  <symbol xmlns="http://www.w3.org/2000/svg" viewBox="0 0 16 16" id="pallette">
    <path d="M8 16C6.55208 16 5.21354 15.6432 3.98438 14.9297C2.75521 14.2161 1.78385 13.2448 1.07031 12.0156C0.356771 10.7865 0 9.44792 0 8C0 6.55208 0.356771 5.21354 1.07031 3.98438C1.78385 2.75521 2.75521 1.78385 3.98438 1.07031C5.21354 0.356771 6.55208 0 8 0C9.16667 0 9.95833 0.143229 10.375 0.429688C10.7917 0.716146 11 1.23958 11 2C11 2.33333 10.9219 2.65104 10.7656 2.95312C10.6094 3.25521 10.4375 3.5 10.25 3.6875C10.0625 3.875 9.89062 4.08594 9.73438 4.32031C9.57812 4.55469 9.5 4.78125 9.5 5C9.5 6 10 6.5 11 6.5C11.2188 6.5 11.4453 6.42188 11.6797 6.26562C11.9141 6.10938 12.125 5.9375 12.3125 5.75C12.5 5.5625 12.7448 5.39062 13.0469 5.23438C13.349 5.07812 13.6667 5 14 5C14.75 5 15.2708 5.21354 15.5625 5.64062C15.8542 6.06771 16 6.85417 16 8C16 9.08333 15.7891 10.1198 15.3672 11.1094C14.9453 12.099 14.3776 12.9505 13.6641 13.6641C12.9505 14.3776 12.099 14.9453 11.1094 15.3672C10.1198 15.7891 9.08333 16 8 16ZM4.5 13C4.91667 13 5.27083 12.8542 5.5625 12.5625C5.85417 12.2708 6 11.9167 6 11.5C6 11.0833 5.85417 10.7292 5.5625 10.4375C5.27083 10.1458 4.91667 10 4.5 10C4.08333 10 3.72917 10.1458 3.4375 10.4375C3.14583 10.7292 3 11.0833 3 11.5C3 11.9167 3.14583 12.2708 3.4375 12.5625C3.72917 12.8542 4.08333 13 4.5 13ZM3.5 5C3.08333 5 2.72917 5.14583 2.4375 5.4375C2.14583 5.72917 2 6.08333 2 6.5C2 6.91667 2.14583 7.27083 2.4375 7.5625C2.72917 7.85417 3.08333 8 3.5 8C3.91667 8 4.27083 7.85417 4.5625 7.5625C4.85417 7.27083 5 6.91667 5 6.5C5 6.08333 4.85417 5.72917 4.5625 5.4375C4.27083 5.14583 3.91667 5 3.5 5ZM6.5 2C6.08333 2 5.72917 2.14583 5.4375 2.4375C5.14583 2.72917 5 3.08333 5 3.5C5 3.91667 5.14583 4.27083 5.4375 4.5625C5.72917 4.85417 6.08333 5 6.5 5C6.91667 5 7.27083 4.85417 7.5625 4.5625C7.85417 4.27083 8 3.91667 8 3.5C8 3.08333 7.85417 2.72917 7.5625 2.4375C7.27083 2.14583 6.91667 2 6.5 2ZM9.5 11C9.08333 11 8.72917 11.1458 8.4375 11.4375C8.14583 11.7292 8 12.0833 8 12.5C8 12.9167 8.14583 13.2708 8.4375 13.5625C8.72917 13.8542 9.08333 14 9.5 14C9.91667 14 10.2708 13.8542 10.5625 13.5625C10.8542 13.2708 11 12.9167 11 12.5C11 12.0833 10.8542 11.7292 10.5625 11.4375C10.2708 11.1458 9.91667 11 9.5 11ZM12.5 8C12.0833 8 11.7292 8.14583 11.4375 8.4375C11.1458 8.72917 11 9.08333 11 9.5C11 9.91667 11.1458 10.2708 11.4375 10.5625C11.7292 10.8542 12.0833 11 12.5 11C12.9167 11 13.2708 10.8542 13.5625 10.5625C13.8542 10.2708 14 9.91667 14 9.5C14 9.08333 13.8542 8.72917 13.5625 8.4375C13.2708 8.14583 12.9167 8 12.5 8Z"/>
  </symbol>
  <symbol xmlns="http://www.w3.org/2000/svg" viewBox="0 0 14 14" id="close">
    <path d="M14 1.41L12.59 0L7 5.59L1.41 0L0 1.41L5.59 7L0 12.59L1.41 14L7 8.41L12.59 14L14 12.59L8.41 7L14 1.41Z" />
  </symbol>
</svg>